<svg xmlns="http://www.w3.org/2000/svg" style="display: none;">
    <symbol id="dependency" viewBox="0 0 256 256">
        <title>dependency</title>
        <path d="m178.1 45.531h-100.2a21.4 21.4 0 1 0 0 42.8h100.2a21.4 21.4 0 1 0 0-42.8zm0 37.8h-100.2a16.4 16.4 0 1 1 0-32.8h100.2a16.4 16.4 0 1 1 0 32.8z" fill="#846f75" />
        <path d="m178.1 106.6h-100.2a21.4 21.4 0 1 0 0 42.8h100.2a21.4 21.4 0 1 0 0-42.8zm0 37.8h-100.2a16.4 16.4 0 1 1 0-32.8h100.2a16.4 16.4 0 1 1 0 32.8z" fill="#846f75" />
        <path d="m178.1 167.667h-100.2a21.4 21.4 0 1 0 0 42.8h100.2a21.4 21.4 0 1 0 0-42.8zm0 37.8h-100.2a16.4 16.4 0 1 1 0-32.8h100.2a16.4 16.4 0 1 1 0 32.8z" fill="#846f75" />
        <path d="m221.333 65.716h-14.381a2.5 2.5 0 0 0 0 5h14.381a7.508 7.508 0 0 1 7.5 7.5v39.784a7.508 7.508 0 0 1 -7.5 7.5h-8.346l8.814-8.813a2.5 2.5 0 1 0 -3.535-3.536l-13.081 13.081a2.5 2.5 0 0 0 0 3.536l13.081 13.081a2.5 2.5 0 1 0 3.535-3.536l-8.814-8.813h8.346a12.514 12.514 0 0 0 12.5-12.5v-39.784a12.514 12.514 0 0 0 -12.5-12.5z" fill="#846f75" />
        <path d="m32.952 130.5h14.381a2.5 2.5 0 0 0 0-5h-14.381a12.514 12.514 0 0 0 -12.5 12.5v39.784a12.514 12.514 0 0 0 12.5 12.5h8.348l-8.816 8.816a2.5 2.5 0 0 0 3.536 3.535l13.08-13.083a2.5 2.5 0 0 0 0-3.535l-13.08-13.081a2.5 2.5 0 0 0 -3.536 3.535l8.814 8.813h-8.346a7.508 7.508 0 0 1 -7.5-7.5v-39.784a7.508 7.508 0 0 1 7.5-7.5z" fill="#846f75" />
        <g fill="#65c1d6">
            <path d="m156.9 64.32h-33.962a2.5 2.5 0 0 1 0-5h33.962a2.5 2.5 0 1 1 0 5z" />
            <path d="m112.938 64.32h-19.209a2.5 2.5 0 0 1 0-5h19.209a2.5 2.5 0 1 1 0 5z" />
            <path d="m162.271 75.111h-16.333a2.5 2.5 0 0 1 0-5h16.333a2.5 2.5 0 0 1 0 5z" />
            <path d="m135.938 75.111h-42.209a2.5 2.5 0 0 1 0-5h42.209a2.5 2.5 0 0 1 0 5z" />
            <path d="m156.9 125.1h-33.962a2.5 2.5 0 0 1 0-5h33.962a2.5 2.5 0 0 1 0 5z" />
            <path d="m112.938 125.1h-19.209a2.5 2.5 0 0 1 0-5h19.209a2.5 2.5 0 0 1 0 5z" />
            <path d="m162.271 135.9h-16.333a2.5 2.5 0 0 1 0-5h16.333a2.5 2.5 0 0 1 0 5z" />
            <path d="m135.938 135.9h-42.209a2.5 2.5 0 0 1 0-5h42.209a2.5 2.5 0 0 1 0 5z" />
            <path d="m156.9 185.889h-33.962a2.5 2.5 0 1 1 0-5h33.962a2.5 2.5 0 0 1 0 5z" />
            <path d="m112.938 185.889h-19.209a2.5 2.5 0 1 1 0-5h19.209a2.5 2.5 0 0 1 0 5z" />
            <path d="m162.271 196.68h-16.333a2.5 2.5 0 0 1 0-5h16.333a2.5 2.5 0 1 1 0 5z" />
            <path d="m135.938 196.68h-42.209a2.5 2.5 0 1 1 0-5h42.209a2.5 2.5 0 0 1 0 5z" />
        </g>
    </symbol>
    <symbol id="facebook" viewBox="0 0 512 511">
        <title>facebook</title>
        <linearGradient id="a" gradientUnits="userSpaceOnUse" x1="0" x2="512" y1="256.489" y2="256.489">
            <stop offset="0" stop-color="#00f2fe" />
            <stop offset=".0208" stop-color="#03effe" />
            <stop offset=".2931" stop-color="#24d2fe" />
            <stop offset=".5538" stop-color="#3cbdfe" />
            <stop offset=".7956" stop-color="#4ab0fe" />
            <stop offset="1" stop-color="#4facfe" />
        </linearGradient>
        <path d="m120.65625 512.476562c-7.25 0-14.445312-2.023437-20.761719-6.007812-10.929687-6.902344-17.703125-18.734375-18.117187-31.660156l-1.261719-41.390625c-51.90625-46.542969-80.515625-111.890625-80.515625-183.992188 0-68.816406 26.378906-132.101562 74.269531-178.199219 47.390625-45.609374 111.929688-70.726562 181.730469-70.726562s134.339844 25.117188 181.730469 70.726562c47.890625 46.097657 74.269531 109.382813 74.269531 178.199219 0 48.804688-13.375 95.445313-38.679688 134.875-5.96875 9.296875-18.339843 12-27.636718 6.03125-9.292969-5.964843-11.996094-18.339843-6.027344-27.632812 21.160156-32.972657 32.34375-72.144531 32.34375-113.273438 0-119.109375-92.859375-208.925781-216-208.925781s-216 89.816406-216 208.925781c0 60.667969 23.957031 115.511719 67.457031 154.425781 8.023438 7.226563 12.628907 17.015626 13.015625 27.609376.003906.039062.003906.082031.003906.125l1.234376 40.332031 45.300781-19.988281c8.15625-3.589844 17.355469-4.28125 25.921875-1.945313 20.132812 5.554687 41.332031 8.363281 63.066406 8.363281 44.613281 0 86.882812-11.941406 122.226562-34.539062 9.308594-5.949219 21.675782-3.226563 27.625 6.082031 5.949219 9.304687 3.226563 21.671875-6.078124 27.621094-41.792969 26.71875-91.507813 40.839843-143.773438 40.839843-25.164062 0-49.789062-3.253906-73.195312-9.667968l-46.464844 20.5c-5.035156 2.207031-10.371094 3.292968-15.683594 3.292968zm9.480469-181.347656 74.746093-57.628906c5.050782-3.789062 12.003907-3.839844 17.101563-.046875l55.308594 42.992187c16.578125 12.371094 40.304687 8.007813 51.355469-9.433593l69.519531-110.242188c6.714843-10.523437-6.335938-22.417969-16.292969-14.882812l-74.710938 56.613281c-5.050781 3.792969-12.003906 3.839844-17.101562.046875l-55.308594-41.988281c-16.578125-12.371094-40.304687-8.011719-51.355468 9.429687l-69.554688 110.253907c-6.714844 10.523437 6.335938 22.421874 16.292969 14.886718zm0 0" fill="url(#a)" />
    </symbol>
    <symbol id="add-button" viewBox="0 0 551.13 551.13">
        <title>add-button</title>
        <path d="m275.565 0c-151.944 0-275.565 123.621-275.565 275.565s123.621 275.565 275.565 275.565 275.565-123.621 275.565-275.565-123.621-275.565-275.565-275.565zm0 516.685c-132.955 0-241.119-108.164-241.119-241.119s108.164-241.12 241.119-241.12 241.12 108.164 241.12 241.119-108.165 241.12-241.12 241.12z" />
        <path d="m292.788 137.783h-34.446v120.56h-120.56v34.446h120.56v120.56h34.446v-120.56h120.56v-34.446h-120.56z" />
    </symbol>
    <symbol id="question" viewBox="0 0 496.158 496.158">
        <title>question</title>
        <path style="fill:#25B7D3;" d="M496.158,248.085c0-137.022-111.069-248.082-248.075-248.082C111.07,0.003,0,111.063,0,248.085 c0,137.001,111.07,248.07,248.083,248.07C385.089,496.155,496.158,385.086,496.158,248.085z" />
        <path style="fill:#FFFFFF;" d="M138.216,173.592c0-13.915,4.467-28.015,13.403-42.297c8.933-14.282,21.973-26.11,39.111-35.486 c17.139-9.373,37.134-14.062,59.985-14.062c21.238,0,39.99,3.921,56.25,11.755c16.26,7.838,28.818,18.495,37.683,31.97 c8.861,13.479,13.293,28.125,13.293,43.945c0,12.452-2.527,23.367-7.581,32.739c-5.054,9.376-11.062,17.469-18.018,24.279 c-6.959,6.812-19.446,18.275-37.463,34.388c-4.981,4.542-8.975,8.535-11.975,11.976c-3.004,3.443-5.239,6.592-6.702,9.447 c-1.466,2.857-2.603,5.713-3.406,8.57c-0.807,2.855-2.015,7.875-3.625,15.051c-2.784,15.236-11.501,22.852-26.147,22.852 c-7.618,0-14.028-2.489-19.226-7.471c-5.201-4.979-7.8-12.377-7.8-22.192c0-12.305,1.902-22.962,5.713-31.97 c3.808-9.01,8.861-16.92,15.161-23.73c6.296-6.812,14.794-14.904,25.488-24.28c9.373-8.202,16.15-14.392,20.325-18.567 c4.175-4.175,7.69-8.823,10.547-13.953c2.856-5.126,4.285-10.691,4.285-16.699c0-11.718-4.36-21.605-13.074-29.663 c-8.717-8.054-19.961-12.085-33.728-12.085c-16.116,0-27.981,4.065-35.596,12.195c-7.618,8.13-14.062,20.105-19.336,35.925 c-4.981,16.555-14.43,24.829-28.345,24.829c-8.206,0-15.127-2.891-20.764-8.679C141.035,186.593,138.216,180.331,138.216,173.592z M245.442,414.412c-8.937,0-16.737-2.895-23.401-8.68c-6.667-5.784-9.998-13.877-9.998-24.279c0-9.229,3.22-16.991,9.668-23.291 c6.444-6.297,14.354-9.448,23.73-9.448c9.229,0,16.991,3.151,23.291,9.448c6.296,6.3,9.448,14.062,9.448,23.291 c0,10.255-3.296,18.312-9.888,24.17C261.7,411.481,254.084,414.412,245.442,414.412z" />
    </symbol>
    <symbol id="copy" viewBox="-40 0 512 512">
        <title>copy</title>
        <path d="m271 512h-191c-44.113281 0-80-35.886719-80-80v-271c0-44.113281 35.886719-80 80-80h191c44.113281 0 80 35.886719 80 80v271c0 44.113281-35.886719 80-80 80zm-191-391c-22.054688 0-40 17.945312-40 40v271c0 22.054688 17.945312 40 40 40h191c22.054688 0 40-17.945312 40-40v-271c0-22.054688-17.945312-40-40-40zm351 261v-302c0-44.113281-35.886719-80-80-80h-222c-11.046875 0-20 8.953125-20 20s8.953125 20 20 20h222c22.054688 0 40 17.945312 40 40v302c0 11.046875 8.953125 20 20 20s20-8.953125 20-20zm0 0" />
    </symbol>
    <symbol id="start-up" viewBox="0 0 512 512.00007">
        <title>start-up</title>
        <path d="m509.785156 15.433594c-.773437-6.972656-6.277344-12.480469-13.253906-13.253906-118.703125-13.183594-219.890625 34.300781-302.429688 119.265624-23.621093 24.316407-44.109374 50.054688-61.597656 74.894532-29.597656-1.203125-62.414062 12.1875-85.679687 35.453125l-42.429688 42.429687c-4.800781 4.800782-5.777343 12.230469-2.382812 18.109375 3.394531 5.878907 10.3125 8.742188 16.875 6.988281 9.84375-2.644531 25.839843-5.71875 41.207031-6.433593 5.617188-.261719 10.285156-.179688 14.164062.117187-9.363281 18.007813-16.539062 33.09375-18.917968 36.871094-3.726563 5.929688-2.863282 13.644531 2.089844 18.597656l24.550781 24.550782c-35.730469 48.730468-36.320313 73.6875-36.195313 77.222656.261719 7.488281 6.101563 14.503906 15.773438 14.503906 8.375 0 32.394531-3.554688 76.121094-36.027344l25.824218 25.824219c4.988282 4.988281 12.78125 5.824219 18.71875 2.011719 4.039063-2.597656 18.238282-9.472656 35.265625-18.371094.28125 12.691406-1.441406 31.328125-5.179687 56.589844-2.125 14.328125 15.292968 22.953125 25.445312 12.804687l42.429688-42.429687c21.878906-21.878906 34.566406-54.375 33.628906-84.859375 26.167969-18.285157 53.390625-39.855469 78.808594-64.78125 84.15625-82.527344 130.179687-182.949219 117.164062-300.078125zm-28.695312 15.4375c2.394531 32.34375-.160156 63.695312-7.601563 94.035156-18.480469-5.820312-36.546875-17.253906-52.863281-33.566406-16.375-16.378906-27.832031-34.519532-33.628906-53.066406 30.328125-7.332032 61.699218-9.816407 94.09375-7.402344zm-422.953125 232.039062 9.898437-9.902344c11.972656-11.96875 27.542969-20.589843 43.027344-24.464843-8.089844 12.839843-15.300781 25.101562-21.660156 36.417969-9.824219-2.167969-20.746094-2.570313-31.265625-2.050782zm28.386719 72.230469c3.246093-6.40625 7.171874-14.4375 14.378906-28.054687l19.746094 19.75c-7.347657 7.882812-13.980469 15.371093-19.957032 22.46875zm73.355468-5.738281c10.929688-10.925782 21.410156-12.921875 34.429688-13.203125-.285156 12.6875-2.320313 23.523437-13.214844 34.417969-46.570312 46.570312-78.492188 67.367187-97.582031 76.648437 9.417969-19.457031 30.269531-51.765625 76.367187-97.863281zm16.871094 95.964844-15.46875-15.472657c7.0625-6 14.527344-12.652343 22.402344-20.027343l21.019531 21.019531c-13.820313 7.378906-19.585937 10.15625-27.953125 14.480469zm82.214844 18.570312-12.007813 12.011719c.972657-14.550781.636719-25.152344-.738281-33.332031 11.03125-6.210938 23.011719-13.253907 35.566406-21.132813-3.578125 15.859375-11.621094 31.257813-22.820312 42.453125zm-26.953125-48.167969-26.894531-26.898437c19.902343-21.898438 19.160156-43 19.160156-67.652344 0-8.285156-6.714844-15-15-15-23.03125 0-45.195313-1.234375-67.652344 19.164062l-25.683594-25.683593c70.132813-122.980469 151.199219-200.839844 242.28125-232.902344 7.210938 23.332031 21.246094 45.8125 41.191406 65.757813 19.851563 19.855468 42.226563 33.855468 65.457032 41.09375-32.25 90.582031-110.089844 171.597656-232.859375 242.121093zm0 0" />
        <path d="m378.199219 133.765625c-29.246094-29.242187-76.832031-29.242187-106.074219 0-29.242188 29.246094-29.242188 76.832031 0 106.074219 29.242188 29.242187 76.828125 29.246094 106.074219 0 29.242187-29.242188 29.242187-76.828125 0-106.074219zm-21.214844 84.859375c-17.546875 17.546875-46.101563 17.546875-63.644531 0-17.546875-17.546875-17.546875-46.097656 0-63.644531 17.542968-17.542969 46.09375-17.546875 63.644531 0 17.546875 17.546875 17.546875 46.097656 0 63.644531zm0 0" />
    </symbol>
    <symbol id="contrast" viewBox="0 0 512 512">
        <title>contrast</title>
        <g>
            <g>
                <path d="M256,0C114.848,0,0,114.848,0,256s114.848,256,256,256s256-114.848,256-256S397.152,0,256,0z M256,480 C132.48,480,32,379.52,32,256S132.48,32,256,32s224,100.48,224,224S379.52,480,256,480z" />
            </g>
        </g>
        <g>
            <g>
                <path d="M256,64v384c112,0,192-85.968,192-192C448,149.952,368,64,256,64z" />
            </g>
        </g>
    </symbol>
    <symbol id="trash" viewBox="0 0 352.112 352.112">
        <title>trash</title>
        <g>
            <g>
                <path d="M313.606,82.309V61.753c0-12.987-11.009-23.394-24.77-23.394h-52.379l-2.064-9.289C230.695,12.987,214.354,0,198.012,0 h-43.95c-16.341,0-32.683,12.987-36.381,29.07l-2.064,9.289H63.239c-13.503,0-24.77,10.407-24.77,23.394v20.556 c0,1.72,1.118,2.838,2.838,2.838h11.525l19.266,231.445c1.376,19.438,18.577,35.521,38.359,35.521h140.364 c19.438,0,36.639-16.083,37.757-35.779l11.697-231.187h10.837C312.746,85.147,313.864,84.029,313.606,82.309z M122.757,30.189 c3.096-13.503,17.201-24.512,31.048-24.512h43.95c13.847,0,27.867,11.267,31.048,24.512l1.806,8.171H121.037L122.757,30.189z M283.16,315.99c-1.118,16.943-15.826,30.447-32.425,30.447H110.372c-16.943,0-31.564-13.847-32.683-30.447L58.509,85.147h236.347 L283.16,315.99z M308.532,79.471h-10.751c-0.258-0.086-0.516,0-0.774,0H55.757c-0.258,0-0.43-0.086-0.688,0H44.662V61.753 c0-9.891,8.429-17.718,19.179-17.718h169.692c0.344,0.086,0.774,0.086,1.118,0h54.701c10.407,0,19.179,7.913,19.179,17.718V79.471 z" />
            </g>
        </g>
        <g>
            <g>
                <path d="M175.995,162.038c-1.72,0-2.838,1.118-2.838,2.838v162.382c0.085,1.72,1.204,2.838,2.838,2.838 c1.72,0,2.838-1.376,2.838-2.838V164.876C178.833,163.155,177.715,162.038,175.995,162.038z" />
            </g>
        </g>
        <g>
            <g>
                <path d="M175.995,104.241c-1.72,0-2.838,1.118-2.838,2.838v38.617c0.085,1.72,1.204,2.838,2.838,2.838 c1.72,0,2.838-1.376,2.838-2.838v-38.617C178.833,105.359,177.715,104.241,175.995,104.241z" />
            </g>
        </g>
        <g>
            <g>
                <path d="M121.38,107.079c0-1.72-1.376-3.097-2.838-2.838c-1.72,0-2.838,1.118-2.838,2.838l8.171,220.178 c-0.001,1.72,1.376,2.838,2.838,2.838c1.72,0,2.838-1.376,2.838-2.838L121.38,107.079z" />
            </g>
        </g>
        <g>
            <g>
                <path d="M233.878,178.637c-1.376,0-2.838,1.118-2.838,2.838l-5.677,145.782c0,1.462,1.118,2.838,2.838,2.838 c1.376,0,2.838-1.118,2.838-2.838l5.677-145.782C236.716,180.099,235.597,178.637,233.878,178.637z" />
            </g>
        </g>
        <g>
            <g>
                <path d="M236.63,104.241c-1.376,0-2.838,1.118-2.838,2.838l-2.236,55.56c0,1.376,1.118,2.838,2.838,2.838 c1.72,0,2.838-1.118,2.838-2.838l2.236-55.56C239.468,105.703,238.349,104.241,236.63,104.241z" />
            </g>
        </g>
    </symbol>
</svg>