<svg xmlns="http://www.w3.org/2000/svg" style="display: none;">
    <symbol id="visa-pay-logo" viewBox="0 0 47.834 47.834">
        <title>visa-pay-logo</title>
        <g>
            <g>
                <polygon points="19.153,16.799 16.722,31.065 20.61,31.065 23.043,16.799 " />
            </g>
        </g>
        <g>
            <g>
                <path d="M13.462,16.815l-3.808,9.729l-0.406-1.469c-0.751-1.77-2.883-4.312-5.386-5.914l3.482,11.897l4.114-0.007l6.123-14.239 L13.462,16.815z" />
            </g>
        </g>
        <g>
            <g>
                <path d="M7.772,17.836c-0.226-0.869-0.881-1.128-1.694-1.159H0.05L0,16.961c4.691,1.138,7.795,3.88,9.083,7.177L7.772,17.836z" />
            </g>
        </g>
        <g>
            <g>
                <path d="M30.923,19.534c1.272-0.02,2.194,0.258,2.91,0.546l0.351,0.165l0.526-3.092c-0.77-0.289-1.977-0.599-3.483-0.599 c-3.842,0-6.55,1.935-6.571,4.708c-0.025,2.049,1.929,3.193,3.405,3.876c1.515,0.7,2.023,1.145,2.016,1.77 c-0.012,0.955-1.208,1.393-2.325,1.393c-1.557,0-2.384-0.215-3.661-0.747l-0.501-0.228l-0.547,3.193 c0.91,0.399,2.589,0.742,4.332,0.76c4.087,0,6.743-1.912,6.771-4.875c0.017-1.621-1.02-2.858-3.267-3.873 c-1.36-0.662-2.192-1.102-2.184-1.77C28.695,20.168,29.401,19.534,30.923,19.534z" />
            </g>
        </g>
        <g>
            <g>
                <path d="M44.688,16.815h-3.004c-0.933,0-1.627,0.254-2.037,1.184l-5.773,13.074h4.083c0,0,0.666-1.758,0.817-2.143 c0.447,0,4.414,0.006,4.979,0.006c0.116,0.498,0.474,2.137,0.474,2.137h3.607L44.688,16.815z M39.893,26.01 c0.32-0.819,1.549-3.987,1.549-3.987c-0.021,0.039,0.317-0.825,0.518-1.362l0.262,1.23c0,0,0.745,3.406,0.901,4.119H39.893z" />
            </g>
        </g>
    </symbol>
    <symbol id="mastercard" viewBox="0 0 512 512">
        <title>mastercard</title>
        <path style="fill:#F0EFEB;" d="M512,256c0,54.293-16.896,104.636-45.735,146.066c-6.457,9.279-13.521,18.119-21.128,26.446 C398.326,479.817,330.919,512,256,512c-81.147,0-153.475-37.752-200.38-96.664c-3.438-4.315-6.74-8.746-9.895-13.281 C16.896,360.636,0,310.282,0,256C0,114.615,114.615,0,256,0S512,114.615,512,256z" />
        <circle style="fill:#EE0005;" cx="174.02" cy="211.05" r="131.96" />
        <circle style="fill:#F9A000;" cx="337.97" cy="211.05" r="131.96" />
        <path style="fill:#FF6300;" d="M206.012,211.048c0,41.9,19.532,79.235,49.984,103.407c30.451-24.173,49.984-61.507,49.984-103.407 s-19.532-79.235-49.984-103.407C225.545,131.815,206.012,169.149,206.012,211.048z" />
        <g>
            <path style="fill:#171614;" d="M94.156,382.6c-5.465,0-10.93,3.009-14.221,9.415c-2.173-5.559-6.698-9.415-12.351-9.415 c-6.311,0-10.459,3.479-12.528,7.158v-3.396c0-1.881-2.069-3.197-4.43-3.197c-2.915,0-4.901,1.317-4.901,3.197v15.694 c3.156,4.535,6.457,8.965,9.895,13.281v-14.179c0-6.405,4.336-9.801,8.767-9.801c4.618,0,8.756,3.866,8.756,9.707v23.562 c0,2.257,2.644,3.197,4.901,3.197c2.55,0,4.995-0.94,4.995-3.197V400.97c0-6.123,4.43-9.707,8.861-9.707 c4.336,0,8.767,3.396,8.767,9.895v23.374c0,1.599,2.351,3.291,4.901,3.291c2.727,0,4.984-1.693,4.984-3.291v-23.374 C110.55,389.287,102.64,382.6,94.156,382.6z" />
            <path style="fill:#171614;" d="M134.771,382.6c-6.405,0-14.232,2.633-14.232,6.029c0,2.257,1.233,4.995,3.584,4.995 c1.881,0,3.584-2.832,10.459-2.832c6.875,0,9.331,5.371,9.331,10.177v1.693h-4.148c-13.093,0-22.047,2.832-22.047,13.479 c0,8.485,5.653,12.434,12.528,12.434c6.405,0,10.93-3.479,14.232-7.346v3.302c0,1.787,1.975,3.291,4.524,3.291 c2.727,0,4.807-1.505,4.807-3.291v-23.656C153.809,391.45,148.626,382.6,134.771,382.6z M143.914,411.617 c0,4.524-5.371,9.425-10.083,9.425c-3.49,0-6.123-1.881-6.123-6.123c0-6.029,6.687-6.792,13.845-6.792h2.361V411.617z" />
            <path style="fill:#171614;" d="M171.144,395.692c0-2.351,2.069-5.465,7.628-5.465c5.287,0,8.202,2.738,10.177,2.738 c2.361,0,3.772-3.396,3.772-4.807c0-3.02-7.064-5.559-14.137-5.559c-11.87,0-16.112,7.064-16.112,13.563 c0,15.642,22.716,9.801,22.716,19.696c0,2.539-1.797,5.089-8.014,5.089c-8.098,0-10.083-4.336-12.528-4.336 c-1.985,0-3.396,2.738-3.396,4.43c0,3.584,6.886,7.534,16.206,7.534c10.648,0,16.583-5.089,16.583-13.093 C194.038,398.524,171.144,403.989,171.144,395.692z" />
            <path style="fill:#171614;" d="M221.654,419.349h-3.302c-4.901,0-6.593-1.703-6.593-6.228V390.51h11.494 c1.693,0,2.738-1.787,2.738-3.678c0-1.881-1.045-3.668-2.738-3.668h-11.494v-17.251c0-1.881-2.55-3.197-4.995-3.197 c-2.361,0-4.901,1.317-4.901,3.197v47.208c0,10.271,5.747,14.702,16.488,14.702h3.302c2.821,0,4.232-2.069,4.232-4.242 C225.886,421.418,224.475,419.349,221.654,419.349z" />
            <path style="fill:#171614;" d="M264.903,416.987c-2.55,0-4.807,3.584-11.494,3.584c-7.262,0-12.257-3.96-12.257-10.271v-2.173 h19.884c4.242,0,8.579-0.282,8.579-8.098c0-10.271-8.673-17.429-18.756-17.429c-10.836,0-19.602,8.38-19.602,18.275v8.955 c0,11.212,9.049,18.745,21.87,18.745c9.509,0,15.642-4.336,15.642-7.158C268.769,419.725,267.254,416.987,264.903,416.987z M241.152,398.994c0-5.183,4.43-8.861,9.613-8.861c5.371,0,9.519,4.054,9.519,9.049c0,2.257-0.752,2.821-3.49,2.821h-15.642 L241.152,398.994L241.152,398.994z" />
            <path style="fill:#171614;" d="M301.934,382.6h-3.02c-5.559,0-9.979,3.95-11.964,7.91v-4.148c0-1.881-2.069-3.197-4.524-3.197 c-2.821,0-4.807,1.317-4.807,3.197v38.17c0,1.599,1.985,3.291,4.807,3.291c2.832,0,5.089-1.693,5.089-3.291v-19.32 c0-8.579,5.653-13.855,11.4-13.855h3.02c1.975,0,3.772-1.975,3.772-4.43C305.706,384.575,303.909,382.6,301.934,382.6z" />
            <path style="fill:#171614;" d="M340.281,416.705c-2.163,0-3.668,3.114-9.895,3.114c-7.252,0-10.459-3.772-10.459-9.989v-8.485 c0-6.217,3.302-9.989,10.365-9.989c6.04,0,7.732,2.926,9.707,2.926c2.361,0,3.96-2.926,3.96-4.807c0-3.302-5.841-6.875-14.42-6.875 c-13.469,0-19.498,8.192-19.498,18.745v8.485c0,10.742,6.029,18.745,19.592,18.745c8.673,0,14.89-3.856,14.89-7.158 C344.524,419.443,342.925,416.705,340.281,416.705z" />
            <path style="fill:#171614;" d="M365.913,382.6c-6.405,0-14.232,2.633-14.232,6.029c0,2.257,1.233,4.995,3.584,4.995 c1.891,0,3.584-2.832,10.459-2.832s9.331,5.371,9.331,10.177v1.693h-4.148c-13.093,0-22.047,2.832-22.047,13.479 c0,8.485,5.653,12.434,12.528,12.434c6.416,0,10.93-3.479,14.232-7.346v3.302c0,1.787,1.975,3.291,4.524,3.291 c2.727,0,4.807-1.505,4.807-3.291v-23.656C384.951,391.45,379.768,382.6,365.913,382.6z M375.056,411.617 c0,4.524-5.371,9.425-10.083,9.425c-3.49,0-6.123-1.881-6.123-6.123c0-6.029,6.687-6.792,13.845-6.792h2.361V411.617 L375.056,411.617z" />
            <path style="fill:#171614;" d="M419.338,382.6h-3.009c-5.559,0-9.989,3.95-11.964,7.91v-4.148c0-1.881-2.079-3.197-4.524-3.197 c-2.832,0-4.807,1.317-4.807,3.197v38.17c0,1.599,1.975,3.291,4.807,3.291c2.821,0,5.089-1.693,5.089-3.291v-19.32 c0-8.579,5.653-13.855,11.4-13.855h3.009c1.985,0,3.772-1.975,3.772-4.43C423.111,384.575,421.324,382.6,419.338,382.6z" />
            <path style="fill:#171614;" d="M461.364,356.592c-2.821,0-4.995,1.317-4.995,3.197v29.968c-2.069-3.678-6.311-7.158-12.246-7.158 c-9.237,0-16.865,8.38-16.865,18.557v8.673c0,9.801,7.722,18.745,16.583,18.745c0.439,0,0.867-0.021,1.296-0.063 c7.607-8.328,14.67-17.168,21.128-26.446V359.79C466.265,357.909,464.196,356.592,461.364,356.592z M456.37,411.993 c0,2.267-4.232,7.826-9.707,7.826c-5.183,0-9.509-4.901-9.509-9.989v-8.673c0-4.901,4.326-9.801,9.613-9.801 c4.702,0,9.603,3.678,9.603,9.801V411.993z" />
        </g>
    </symbol>
    <symbol id="question" viewBox="0 0 512 512">
        <title>question</title>
        <path d="m255 401c-11.046875 0-20-8.953125-20-20s8.953125-20 20-20 20 8.953125 20 20-8.953125 20-20 20zm20-90v-26.855469c38.671875-9.355469 65.464844-44.441406 63.9375-84.117187-1.660156-43.203125-37.105469-78.332032-80.695312-79.964844-23.289063-.882812-45.28125 7.460938-61.90625 23.472656-16.339844 15.738282-25.335938 36.855469-25.335938 59.464844 0 11.046875 8.953125 20 20 20s20-8.953125 20-20c0-11.640625 4.644531-22.527344 13.082031-30.652344 8.726563-8.402344 20.316407-12.773437 32.660157-12.316406 22.816406.859375 41.363281 19.101562 42.226562 41.535156.800781 20.90625-13.628906 39.378906-34.320312 43.917969-17.457032 3.832031-29.648438 18.917969-29.648438 36.691406v28.824219c0 11.046875 8.953125 20 20 20s20-8.953125 20-20zm113.460938 164.105469c9.449218-5.722657 12.46875-18.019531 6.746093-27.464844-5.726562-9.449219-18.023437-12.46875-27.46875-6.746094-33.59375 20.347657-72.234375 31.105469-111.738281 31.105469-119.101562 0-216-96.898438-216-216s96.898438-216 216-216 216 96.898438 216 216c0 42.589844-12.664062 84.042969-36.625 119.886719-6.140625 9.179687-3.671875 21.601562 5.507812 27.742187 9.183594 6.140625 21.605469 3.671875 27.742188-5.511718 28.378906-42.441407 43.375-91.585938 43.375-142.117188 0-68.378906-26.628906-132.667969-74.980469-181.019531-48.351562-48.351563-112.640625-74.980469-181.019531-74.980469s-132.667969 26.628906-181.019531 74.980469c-48.351563 48.351562-74.980469 112.640625-74.980469 181.019531s26.628906 132.667969 74.980469 181.019531c48.351562 48.351563 112.640625 74.980469 181.019531 74.980469 46.8125 0 92.617188-12.757812 132.460938-36.894531zm0 0" />
    </symbol>
    <symbol id="information-button" viewBox="0 0 438.533 438.533">
        <title>information-button</title>
        <path d="M409.133,109.203c-19.608-33.592-46.205-60.189-79.798-79.796C295.736,9.801,259.058,0,219.273,0 c-39.781,0-76.47,9.801-110.063,29.407c-33.595,19.604-60.192,46.201-79.8,79.796C9.801,142.8,0,179.489,0,219.267 c0,39.78,9.804,76.463,29.407,110.062c19.607,33.592,46.204,60.189,79.799,79.798c33.597,19.605,70.283,29.407,110.063,29.407 s76.47-9.802,110.065-29.407c33.593-19.602,60.189-46.206,79.795-79.798c19.603-33.596,29.403-70.284,29.403-110.062 C438.533,179.485,428.732,142.795,409.133,109.203z M182.727,54.813c0-2.666,0.855-4.853,2.57-6.565 c1.712-1.711,3.903-2.57,6.567-2.57h54.82c2.662,0,4.853,0.859,6.561,2.57c1.711,1.712,2.573,3.899,2.573,6.565v45.682 c0,2.664-0.862,4.854-2.573,6.564c-1.708,1.712-3.898,2.568-6.561,2.568h-54.82c-2.664,0-4.854-0.856-6.567-2.568 c-1.715-1.709-2.57-3.9-2.57-6.564V54.813z M292.359,356.309c0,2.662-0.863,4.853-2.57,6.561c-1.704,1.714-3.895,2.57-6.563,2.57 H155.317c-2.667,0-4.854-0.856-6.567-2.57c-1.712-1.708-2.568-3.898-2.568-6.564v-45.682c0-2.67,0.856-4.853,2.568-6.567 c1.713-1.708,3.903-2.57,6.567-2.57h27.41v-91.358h-27.41c-2.667,0-4.853-0.855-6.567-2.568c-1.712-1.711-2.568-3.901-2.568-6.567 v-45.679c0-2.666,0.856-4.853,2.568-6.567c1.715-1.713,3.905-2.568,6.567-2.568h91.367c2.662,0,4.853,0.855,6.561,2.568 c1.711,1.714,2.573,3.901,2.573,6.567v146.179h27.401c2.669,0,4.859,0.855,6.57,2.566c1.704,1.712,2.566,3.901,2.566,6.567v45.683 H292.359z" />
    </symbol>
</svg>